# xmcd CD database file
#
# Track frame offsets:
#	150
#	18150
#	30225
#	47925
#	63825
#	78750
#	105450
#	121200
#	138375
#	153975
#	173175
#	193200
#
# Disc length: 2809 seconds
#
# Revision: 0
# Processed by: cddbd v1.5.1PL2 Copyright (c) Steve Scherf et al.
# Submitted via: CDex 1.50
#
DISCID=8e0af70c
DTITLE=Nellie Donovan - Steppin' Out
DYEAR=2005
DGENRE=Country
TTITLE0=Sing Me An Angel
TTITLE1=Steal My Heart Away
TTITLE2=Steppin Out
TTITLE3=Sleeping Train
TTITLE4=In A Child's Smile
TTITLE5=My Earth Angel
TTITLE6=Anybody But You
TTITLE7=Rodney
TTITLE8=Cruising
TTITLE9=Email To Heaven
TTITLE10=Those Telephone Calls
TTITLE11=Smooth
EXTD=YEAR: 2005
EXTT0=
EXTT1=
EXTT2=
EXTT3=
EXTT4=
EXTT5=
EXTT6=
EXTT7=
EXTT8=
EXTT9=
EXTT10=
EXTT11=
PLAYORDER=
